<svg xmlns='http://www.w3.org/2000/svg' color="#f12783" viewBox='0 0 64 64'><path d="M 33.27 9.049 C 19.627 9.049 8.566 20.098 8.566 33.741 C 8.558 39.778 10.767 45.605 14.776 50.117 C 14.897 50.249 15.006 50.382 15.128 50.504 C 16.232 51.698 18.123 51.694 19.22 50.493 C 26.782 42.273 39.756 42.273 47.318 50.493 C 48.417 51.694 50.306 51.698 51.41 50.504 L 51.762 50.117 C 55.771 45.605 57.981 39.778 57.972 33.741 C 57.972 20.098 46.911 9.049 33.27 9.049 Z" fill="currentColor" stroke="currentColor" stroke-linecap="round" stroke-linejoin="round" stroke-width="0" style="" /><path color="black" fill="black" stroke="black" d="M 40.999 27.565 L 35.761 35.891 C 35.547 36.188 35.288 36.449 34.99 36.664 C 32.893 38.126 30 36.77 29.781 34.225 C 29.682 33.068 30.193 31.944 31.13 31.259 L 39.457 26.022 C 39.842 25.751 40.359 25.751 40.744 26.022 C 41.241 26.38 41.355 27.068 40.999 27.565 Z" /><path fill="none" stroke="black" stroke-linecap="round" stroke-miterlimit="10" stroke-width="2" d="M 33.27 16.106 L 33.27 19.637 M 50.915 33.751 L 47.385 33.751 M 19.154 33.751 L 15.623 33.751 M 23.286 23.769 L 20.792 21.275 M 43.252 23.769 L 45.746 21.275" /></svg>