<svg xmlns="http://www.w3.org/2000/svg" width="120" height="120"><g transform="translate(60 60.4)"><linearGradient id="b" gradientUnits="userSpaceOnUse" gradientTransform="translate(59.2 60.4)" x1="0" y1="0" x2="94.8" y2="94"><stop offset="0%"/><stop offset="50%" stop-color="#e5008d"/><stop offset="100%" stop-color="#ff070b"/></linearGradient><linearGradient id="a" gradientUnits="userSpaceOnUse" gradientTransform="translate(59.2 60.4)" x1="0" y1="0" x2="94.8" y2="94"><stop offset="0%" stop-color="#ec008c"/><stop offset="100%" stop-color="#fc6767"/></linearGradient><path transform="translate(-106.6 -107.4)" d="M61.7 64S76 80.6 106 62.8c29.6-15.7-85.2 49.6-33 47.6 33-3.4 67-77.3 67.8-37.2.2 34.2-59.4 56.6-74.3 64.1 0 0 77.8-32.2 86.3-29.9 12 1.8-71.9 40.4-63 46 9 5.7 28-20 59.1-2.3" stroke-linecap="round" stroke="url(#a)" stroke-width="23" stroke-dasharray="0 0" stroke-linejoin="round" fill="url(#b)"/></g><g transform="translate(57.6 61)"><filter id="c" y="-22.2%" height="144.3%" x="-23.2%" width="146.5%"><feGaussianBlur in="SourceAlpha"/><feOffset dx="2" dy="2" result="oBlur"/><feFlood flood-color="#FFF" flood-opacity="1"/><feComposite in2="oBlur" operator="in"/><feMerge><feMergeNode/><feMergeNode in="SourceGraphic"/></feMerge></filter><path transform="translate(-90 -108.3)" d="M90.2 139.3c16.6 1 16.8-3.5 3.9-10.2-30.2-16.7-36.9-29.7-34.7-44.5 4-18.8 39.4-34.8 58.7-8.5 11.5 18.7-13.4 36-24.3 36.3a176 176 0 01-3.2-13.6c-5 4.3-2.3 2.7-7 6.4-5.9-2.6-21.7-11.1-15-28.5 0 0-21 20.8 24 42.2 31 12.2 24.3 26 14.4 31-32.4 11.8-20-2.6-16.8-10.6z" stroke-linecap="round" stroke="#000" stroke-linejoin="round" fill="#1b1b1b" filter="url(#c)"/></g><g transform="translate(57.7 37)"><linearGradient id="d" gradientUnits="userSpaceOnUse" gradientTransform="translate(59.1 38.3)" x1="0" y1="0" x2="39.1" y2="33.6"><stop offset="0%" stop-color="#dce35b"/><stop offset="100%" stop-color="#45b649"/></linearGradient><path transform="translate(-78.7 -55)" d="M79.7 63.7s-3.2 2-8.3 6.5c-15.8-7-13.7-21.7-8.2-26 22-14.5 33.6 1.7 34.6 6.1 2.5 10.2-5 19.6-12 21.6-2.8-4.3-4.5-8-4.5-8z" stroke="#000" fill="url(#d)"/></g></svg>